HIERARCHY
ROOT Hips
{
  OFFSET 0 89.5177 0.535
  CHANNELS 6 Xposition Yposition Zposition Zrotation Xrotation Yrotation
  JOINT Spine
  {
    OFFSET 12.0259 -0.162855 1.69034e-005
    CHANNELS 3 Zrotation Xrotation Yrotation
    JOINT Spine1
    {
      OFFSET 15.3169 -0.0121922 0
      CHANNELS 3 Zrotation Xrotation Yrotation
      JOINT Spine2
      {
        OFFSET 15.3176 -0.0121908 0
        CHANNELS 3 Zrotation Xrotation Yrotation
        JOINT Neck
        {
          OFFSET 19.9142 1.56338 0
          CHANNELS 3 Zrotation Xrotation Yrotation
          JOINT Head
          {
            OFFSET 6.92651 0 0
            CHANNELS 3 Zrotation Xrotation Yrotation
            End Site
            {
              OFFSET 20.7666 0 0
            }
          }
          JOINT LeftShoulder
          {
            OFFSET -6.20654 0.708824 7.28219
            CHANNELS 3 Zrotation Xrotation Yrotation
            JOINT LeftArm
            {
              OFFSET 14.108 0 -1.52588e-005
              CHANNELS 3 Zrotation Xrotation Yrotation
              JOINT LeftForeArm
              {
                OFFSET 28.5802 0 0
                CHANNELS 3 Zrotation Xrotation Yrotation
                JOINT LeftHand
                {
                  OFFSET 27.092 0 0
                  CHANNELS 3 Zrotation Xrotation Yrotation
                  End Site
                  {
                    OFFSET 9.55928 -0.186424 0.145352
                  }
                }
              }
            }
          }
          JOINT RightShoulder
          {
            OFFSET -6.20654 0.708866 -7.28218
            CHANNELS 3 Zrotation Xrotation Yrotation
            JOINT RightArm
            {
              OFFSET 14.108 0 1.52588e-005
              CHANNELS 3 Zrotation Xrotation Yrotation
              JOINT RightForeArm
              {
                OFFSET 28.5802 0 0
                CHANNELS 3 Zrotation Xrotation Yrotation
                JOINT RightHand
                {
                  OFFSET 27.092 0 0
                  CHANNELS 3 Zrotation Xrotation Yrotation
                  End Site
                  {
                    OFFSET 9.55929 -0.186417 -0.145354
                  }
                }
              }
            }
          }
        }
      }
    }
  }
  JOINT LeftUpLeg
  {
    OFFSET 0.005 -0.535 8.837
    CHANNELS 3 Zrotation Xrotation Yrotation
    JOINT LeftLeg
    {
      OFFSET 39.9035 0 0
      CHANNELS 3 Zrotation Xrotation Yrotation
      JOINT LeftFoot
      {
        OFFSET 39.6689 0 0
        CHANNELS 3 Zrotation Xrotation Yrotation
        JOINT LeftToe
        {
          OFFSET 10.1624 13.6296 0
          CHANNELS 3 Zrotation Xrotation Yrotation
          End Site
          {
            OFFSET 8.38147 0 0
          }
        }
      }
    }
  }
  JOINT RightUpLeg
  {
    OFFSET 0.005 -0.535 -8.837
    CHANNELS 3 Zrotation Xrotation Yrotation
    JOINT RightLeg
    {
      OFFSET 39.9035 0 0
      CHANNELS 3 Zrotation Xrotation Yrotation
      JOINT RightFoot
      {
        OFFSET 39.6689 0 0
        CHANNELS 3 Zrotation Xrotation Yrotation
        JOINT RightToe
        {
          OFFSET 10.1624 13.6296 0
          CHANNELS 3 Zrotation Xrotation Yrotation
          End Site
          {
            OFFSET 8.38147 0 0
          }
        }
      }
    }
  }
}
MOTION
Frames:	12
Frame Time:	0.0333333
210.857 90.138 -162.496 -90.712 -82.2227 -179.907 -0.478307 -1.16003 -1.21046 -0.981313 -2.30919 -2.43113 -0.981313 -2.30919 -2.43114 -8.30728e-012 -9.0191e-006 -5.27751e-005 19.7898 9.12422 -1.59202 -178.997 -25.7081 -87.6877 -8.58714 -52.2526 20.9342 -7.5139 0 -6.36111e-015 -26.6497 -35.2264 -26.0762 -178.849 17.9264 86.267 -20.2829 33.4339 -10.0791 -7.89977 -1.90833e-014 -1.19271e-015 -77.4451 66.6148 81.8369 -2.56346 9.51591 -177.576 -11.4566 3.97569e-016 5.96354e-016 12.6098 5.98988 -9.51423 90 -5.46658e-016 1.59028e-015 -2.59745 -10.0987 177.04 -9.9996 0 -0 10.9438 -3.23513 5.11195 90 -1.98785e-016 -3.18055e-015 
210.859 90.1303 -162.447 -90.9042 -82.1541 179.896 -0.488176 -1.16794 -1.20619 -1.00114 -2.32482 -2.42286 -1.00114 -2.32482 -2.42287 -8.30808e-012 -9.0191e-006 -5.27751e-005 19.8555 9.16231 -1.63546 -178.989 -25.7347 -87.6717 -8.58129 -52.2166 20.9372 -7.59447 3.18055e-015 3.18055e-015 -26.8553 -35.2257 -26.2662 -178.862 17.8741 86.2979 -20.1826 33.4877 -10.1396 -7.92247 -6.36111e-015 3.97569e-016 -77.4059 66.6041 81.7946 -2.67288 9.54944 -177.557 -11.5821 -1.98785e-016 4.47266e-016 12.6923 5.96122 -9.46853 90 -4.47266e-016 -7.95139e-016 -2.70214 -10.0734 177.043 -10.081 0 -3.97569e-016 10.9672 -3.24664 5.12999 90 3.97569e-016 -3.18055e-015 
210.865 90.1251 -162.407 -90.8058 -82.0487 179.977 -0.483962 -1.16702 -1.20012 -0.9925 -2.32099 -2.41062 -0.9925 -2.32099 -2.41063 -8.30748e-012 -9.0191e-006 -5.27751e-005 19.8745 9.16722 -1.65073 -178.983 -25.7852 -87.6636 -8.69945 -52.0761 20.8932 -7.64928 0 -0 -26.487 -35.3815 -25.971 -178.859 17.8742 86.2889 -20.2153 33.4807 -10.1165 -7.9524 6.36111e-015 -9.93923e-016 -77.3781 66.6072 81.7636 -2.73479 9.66583 -177.515 -11.7012 -7.95139e-016 1.98785e-016 12.7724 5.96807 -9.48003 90 -2.98177e-016 -0 -2.75444 -10.0049 177.06 -10.1348 0 -0 10.9701 -3.28545 5.19114 90 -7.95139e-016 -1.59028e-015 
210.871 90.1227 -162.384 -90.5261 -81.9477 -179.746 -0.474858 -1.16501 -1.19559 -0.974169 -2.3183 -2.40137 -0.974169 -2.3183 -2.40138 -8.30688e-012 -9.0191e-006 -5.27751e-005 19.8883 9.17922 -1.68717 -178.986 -25.7989 -87.6711 -8.65763 -52.3686 20.9733 -7.52513 9.54166e-015 -1.59028e-015 -26.9501 -35.2002 -26.3441 -178.863 17.8623 86.2994 -20.248 33.5943 -10.1094 -7.95586 -3.18055e-015 1.2921e-015 -77.3171 66.5302 81.7029 -2.74505 9.73507 -177.502 -11.7897 -5.96354e-016 -7.95139e-016 12.8029 5.94721 -9.44639 90 0 -7.95139e-016 -2.75407 -9.96963 177.066 -10.1591 3.18056e-015 -1.19271e-015 10.9896 -3.2959 5.20767 90 -1.98785e-016 3.18055e-015 
210.873 90.1198 -162.366 -90.4095 -81.869 -179.634 -0.472667 -1.16299 -1.19741 -0.981267 -2.31583 -2.40506 -0.981267 -2.31583 -2.40507 -8.30688e-012 -9.0191e-006 -5.27751e-005 19.9619 9.14571 -1.63017 -178.997 -25.7999 -87.6964 -8.6935 -52.5695 20.9899 -7.41356 1.59028e-014 1.59028e-015 -27.0331 -35.0847 -26.3863 -178.851 17.8864 86.265 -20.2796 33.5895 -10.0936 -7.99499 -3.18055e-015 -9.93923e-016 -77.282 66.4682 81.6695 -2.76554 9.79038 -177.491 -11.851 0 1.49089e-016 12.8286 5.93406 -9.42526 90 8.44835e-016 -0 -2.78277 -9.94737 177.059 -10.2059 9.54167e-015 3.97569e-016 11.0124 -3.36549 5.31775 90 5.96354e-016 4.77083e-015 
210.872 90.115 -162.345 -90.3864 -81.7787 -179.615 -0.470854 -1.16208 -1.18998 -0.988401 -2.31338 -2.39026 -0.988401 -2.31338 -2.39027 -8.30808e-012 -9.0191e-006 -5.27751e-005 20.0323 9.1313 -1.62521 -179.001 -25.7945 -87.7049 -8.70127 -52.5258 21.0129 -7.44907 -3.18055e-015 -3.18055e-015 -26.6674 -35.1225 -26.0613 -178.85 17.9104 86.264 -20.3411 33.6066 -10.061 -8.00717 -1.27222e-014 -8.94531e-016 -77.3346 66.489 81.7253 -2.8179 9.9016 -177.472 -11.9478 -3.97569e-016 6.95746e-016 12.865 5.94087 -9.43619 90 -1.49089e-016 -0 -2.83753 -9.85846 177.055 -10.2653 0 -0 11.0003 -3.38057 5.34126 90 -3.97569e-016 -6.36111e-015 
210.864 90.1098 -162.327 -90.2718 -81.7105 -179.501 -0.469812 -1.17026 -1.18617 -0.983205 -2.32984 -2.38265 -0.983205 -2.32984 -2.38266 -8.30768e-012 -9.0191e-006 -5.27751e-005 20.0473 9.08277 -1.57286 -178.997 -25.811 -87.697 -8.76384 -52.5189 20.9658 -7.46281 -9.54166e-015 -1.59028e-015 -26.8225 -35.1266 -26.2055 -178.843 17.9074 86.2406 -20.3891 33.4955 -10.0124 -8.06043 0 -9.44227e-016 -77.3664 66.4631 81.7634 -2.84213 9.94678 -177.468 -12.0294 7.95139e-016 -4.47266e-016 12.9171 5.93222 -9.42253 90 6.95746e-016 -1.59028e-015 -2.87402 -9.80571 177.049 -10.3343 3.18056e-015 3.97569e-016 11.0006 -3.3778 5.33655 90 -7.95139e-016 -0 
210.858 90.1041 -162.305 -90.2952 -81.6789 -179.535 -0.469238 -1.18533 -1.17505 -0.975056 -2.36015 -2.36048 -0.975057 -2.36015 -2.36049 -8.30828e-012 -9.0191e-006 -5.27751e-005 20.0194 9.02578 -1.57917 -178.972 -25.8113 -87.6402 -8.8635 -52.4778 20.8524 -7.49404 9.54166e-015 1.59028e-015 -27.0989 -35.0665 -26.4411 -178.842 17.8966 86.236 -20.4083 33.431 -9.95507 -8.07653 9.54166e-015 -3.97569e-016 -77.4876 66.4135 81.9 -2.92621 9.96985 -177.446 -12.1578 -1.98785e-016 -8.44835e-016 12.9595 5.92946 -9.41792 90 -1.73937e-015 7.95139e-016 -2.9262 -9.78263 177.053 -10.3835 9.54167e-015 3.97569e-016 11.0192 -3.39854 5.36929 90 -1.19271e-015 1.59028e-015 
210.858 90.1 -162.291 -90.1736 -81.6361 -179.418 -0.469092 -1.19638 -1.16737 -0.962775 -2.38244 -2.34509 -0.962775 -2.38244 -2.3451 -8.30748e-012 -9.0191e-006 -5.27751e-005 20.0046 8.96646 -1.49503 -178.96 -25.8325 -87.6153 -9.03212 -52.3428 20.7149 -7.49142 0 -1.59028e-015 -26.7636 -35.1267 -26.1515 -178.841 17.9248 86.2391 -20.4474 33.521 -9.94326 -8.02715 -3.18055e-015 -1.3418e-015 -77.4126 66.4314 81.8164 -2.9518 10.0456 -177.425 -12.2234 0 3.47873e-016 12.9721 5.9601 -9.46695 90 -9.93923e-017 -1.59028e-015 -2.95639 -9.7823 177.056 -10.4508 -3.18056e-015 -3.97569e-016 11.0282 -3.39356 5.36121 90 -1.39149e-015 -4.77083e-015 
210.855 90.0982 -162.272 -90.2859 -81.5987 -179.534 -0.475745 -1.20295 -1.16057 -0.976079 -2.39549 -2.33169 -0.976079 -2.39549 -2.3317 -8.30708e-012 -9.0191e-006 -5.27751e-005 20.063 8.91075 -1.43484 -178.967 -25.7968 -87.6263 -8.98936 -52.5247 20.7719 -7.43604 -3.18055e-015 4.77083e-015 -26.7706 -35.103 -26.1506 -178.841 17.9452 86.2448 -20.4098 33.6369 -9.9616 -8.00658 3.18055e-015 -3.72721e-016 -77.4062 66.455 81.8067 -2.95792 10.0702 -177.426 -12.1985 3.97569e-016 4.96962e-017 12.9985 5.94391 -9.44149 90 -1.04362e-015 1.59028e-015 -2.98876 -9.78324 177.06 -10.4384 -6.36111e-015 -0 11.0361 -3.41596 5.39674 90 -3.97569e-016 1.59028e-015 
210.851 90.0972 -162.254 -90.3918 -81.5732 -179.637 -0.48566 -1.21711 -1.15276 -0.996044 -2.42369 -2.31641 -0.996044 -2.42369 -2.31642 -8.30748e-012 -9.0191e-006 -5.27751e-005 20.1887 8.90021 -1.42866 -178.966 -25.7903 -87.6253 -8.94563 -52.6136 20.8108 -7.44762 -1.27222e-014 -4.77083e-015 -26.8116 -35.0134 -26.1629 -178.855 17.9223 86.2844 -20.3238 33.6204 -10.0107 -8.05271 0 1.31695e-015 -77.5383 66.444 81.9528 -2.99434 10.0895 -177.416 -12.2209 -1.98785e-016 -4.47266e-016 13.0263 5.94447 -9.44268 90 -5.46658e-016 7.95139e-016 -3.00918 -9.74247 177.063 -10.4399 0 -3.97569e-016 11.0462 -3.41285 5.39192 90 3.97569e-016 -1.59028e-015 
210.848 90.0958 -162.232 -90.7789 -81.5581 179.975 -0.503196 -1.22657 -1.15157 -1.03129 -2.44225 -2.31449 -1.03129 -2.44225 -2.3145 -8.30688e-012 -9.0191e-006 -5.27751e-005 20.2698 8.85291 -1.36736 -178.976 -25.7803 -87.6466 -8.97727 -52.5651 20.82 -7.5197 3.18055e-015 3.18055e-015 -26.8599 -35.0665 -26.2238 -178.835 17.9874 86.2339 -20.4053 33.6345 -9.94865 -8.05811 0 1.11816e-015 -77.4705 66.3908 81.883 -3.09035 10.0446 -177.422 -12.2807 1.98785e-016 -6.95746e-016 13.0387 5.90246 -9.37496 90 -1.2921e-015 7.95139e-016 -3.08091 -9.74845 177.053 -10.4339 6.36111e-015 -3.97569e-016 11.0688 -3.45838 5.46416 90 -3.97569e-016 -4.77083e-015 
